<mxfile host="app.diagrams.net" modified="2024-06-12T19:39:17.855Z" agent="Mozilla/5.0 (X11; Linux x86_64) AppleWebKit/537.36 (KHTML, like Gecko) Chrome/125.0.0.0 Safari/537.36" etag="_nHGlS1YapuBFNaTQTi7" version="24.5.4" type="github">
  <diagram name="Página-1" id="zxzuJoMTzz1O9SDWJ1AD">
    <mxGraphModel dx="2195" dy="754" grid="1" gridSize="10" guides="1" tooltips="1" connect="1" arrows="1" fold="1" page="1" pageScale="1" pageWidth="827" pageHeight="1169" background="#FFFFFF" math="0" shadow="0">
      <root>
        <mxCell id="0" />
        <mxCell id="1" parent="0" />
        <mxCell id="9qMxv9r_k5kkdr-NUMTY-2" style="edgeStyle=orthogonalEdgeStyle;orthogonalLoop=1;jettySize=auto;html=1;" edge="1" parent="1" source="9qMxv9r_k5kkdr-NUMTY-1" target="9qMxv9r_k5kkdr-NUMTY-8">
          <mxGeometry relative="1" as="geometry">
            <mxPoint x="30" y="250" as="targetPoint" />
          </mxGeometry>
        </mxCell>
        <mxCell id="9qMxv9r_k5kkdr-NUMTY-1" value="Site da Lys&lt;br&gt;(Painel de cursos)" style="rounded=1;whiteSpace=wrap;html=1;" vertex="1" parent="1">
          <mxGeometry x="-180" y="220" width="120" height="60" as="geometry" />
        </mxCell>
        <mxCell id="9qMxv9r_k5kkdr-NUMTY-28" value="" style="edgeStyle=orthogonalEdgeStyle;orthogonalLoop=1;jettySize=auto;html=1;entryX=0;entryY=0.5;entryDx=0;entryDy=0;entryPerimeter=0;" edge="1" parent="1" source="9qMxv9r_k5kkdr-NUMTY-3" target="9qMxv9r_k5kkdr-NUMTY-27">
          <mxGeometry relative="1" as="geometry" />
        </mxCell>
        <mxCell id="9qMxv9r_k5kkdr-NUMTY-3" value="Tela para escolher a mentoria" style="rounded=1;whiteSpace=wrap;html=1;" vertex="1" parent="1">
          <mxGeometry x="390" y="220" width="120" height="60" as="geometry" />
        </mxCell>
        <mxCell id="9qMxv9r_k5kkdr-NUMTY-4" value="Clique no curos 7 enviando&lt;br&gt;o token do aluno&lt;div&gt;&lt;br&gt;&lt;/div&gt;" style="text;html=1;align=center;verticalAlign=middle;resizable=0;points=[];autosize=1;strokeColor=none;fillColor=none;" vertex="1" parent="1">
          <mxGeometry x="-40" y="210" width="170" height="60" as="geometry" />
        </mxCell>
        <mxCell id="9qMxv9r_k5kkdr-NUMTY-5" value="Usuário" style="swimlane;whiteSpace=wrap;html=1;startSize=20;" vertex="1" parent="1">
          <mxGeometry x="610" y="30" width="145" height="100" as="geometry">
            <mxRectangle x="110" y="320" width="80" height="30" as="alternateBounds" />
          </mxGeometry>
        </mxCell>
        <mxCell id="9qMxv9r_k5kkdr-NUMTY-7" value="&lt;ul&gt;&lt;li&gt;id&lt;/li&gt;&lt;li&gt;token&lt;/li&gt;&lt;li&gt;Data de entrada&lt;br&gt;&lt;/li&gt;&lt;li&gt;mentoria&lt;/li&gt;&lt;/ul&gt;" style="text;html=1;align=center;verticalAlign=middle;resizable=0;points=[];autosize=1;strokeColor=none;fillColor=none;" vertex="1" parent="9qMxv9r_k5kkdr-NUMTY-5">
          <mxGeometry x="-15" y="15" width="150" height="100" as="geometry" />
        </mxCell>
        <mxCell id="9qMxv9r_k5kkdr-NUMTY-19" style="edgeStyle=orthogonalEdgeStyle;orthogonalLoop=1;jettySize=auto;html=1;entryX=0.5;entryY=1;entryDx=0;entryDy=0;exitX=0.5;exitY=1;exitDx=0;exitDy=0;" edge="1" parent="1" source="9qMxv9r_k5kkdr-NUMTY-8" target="9qMxv9r_k5kkdr-NUMTY-17">
          <mxGeometry relative="1" as="geometry">
            <mxPoint x="280" y="340" as="sourcePoint" />
            <mxPoint x="890" y="375" as="targetPoint" />
          </mxGeometry>
        </mxCell>
        <mxCell id="9qMxv9r_k5kkdr-NUMTY-23" style="edgeStyle=orthogonalEdgeStyle;orthogonalLoop=1;jettySize=auto;html=1;entryX=0;entryY=0.5;entryDx=0;entryDy=0;" edge="1" parent="1" source="9qMxv9r_k5kkdr-NUMTY-8" target="9qMxv9r_k5kkdr-NUMTY-3">
          <mxGeometry relative="1" as="geometry">
            <mxPoint x="300" y="250" as="targetPoint" />
          </mxGeometry>
        </mxCell>
        <mxCell id="9qMxv9r_k5kkdr-NUMTY-8" value="Já está no curso?" style="rhombus;whiteSpace=wrap;html=1;" vertex="1" parent="1">
          <mxGeometry x="180" y="210" width="90" height="80" as="geometry" />
        </mxCell>
        <mxCell id="9qMxv9r_k5kkdr-NUMTY-10" value="Não" style="text;html=1;align=center;verticalAlign=middle;resizable=0;points=[];autosize=1;strokeColor=none;fillColor=none;" vertex="1" parent="1">
          <mxGeometry x="300" y="230" width="50" height="30" as="geometry" />
        </mxCell>
        <mxCell id="9qMxv9r_k5kkdr-NUMTY-16" value="Salvar usuário&lt;div&gt;&lt;br&gt;&lt;/div&gt;" style="text;html=1;align=center;verticalAlign=middle;resizable=0;points=[];autosize=1;strokeColor=none;fillColor=none;" vertex="1" parent="1">
          <mxGeometry x="520" y="230" width="100" height="40" as="geometry" />
        </mxCell>
        <mxCell id="9qMxv9r_k5kkdr-NUMTY-35" value="" style="edgeStyle=orthogonalEdgeStyle;orthogonalLoop=1;jettySize=auto;html=1;" edge="1" parent="1" source="9qMxv9r_k5kkdr-NUMTY-17" target="9qMxv9r_k5kkdr-NUMTY-32">
          <mxGeometry relative="1" as="geometry" />
        </mxCell>
        <mxCell id="9qMxv9r_k5kkdr-NUMTY-17" value="Primeira tela do curso&lt;br&gt;Descritivo do curso com botão de iniciar" style="rounded=1;whiteSpace=wrap;html=1;" vertex="1" parent="1">
          <mxGeometry x="810" y="220" width="120" height="60" as="geometry" />
        </mxCell>
        <mxCell id="9qMxv9r_k5kkdr-NUMTY-20" value="Sim" style="text;html=1;align=center;verticalAlign=middle;resizable=0;points=[];autosize=1;strokeColor=none;fillColor=none;" vertex="1" parent="1">
          <mxGeometry x="480" y="290" width="40" height="30" as="geometry" />
        </mxCell>
        <mxCell id="9qMxv9r_k5kkdr-NUMTY-29" value="" style="edgeStyle=orthogonalEdgeStyle;orthogonalLoop=1;jettySize=auto;html=1;" edge="1" parent="1" source="9qMxv9r_k5kkdr-NUMTY-27" target="9qMxv9r_k5kkdr-NUMTY-7">
          <mxGeometry relative="1" as="geometry">
            <Array as="points" />
          </mxGeometry>
        </mxCell>
        <mxCell id="9qMxv9r_k5kkdr-NUMTY-30" style="edgeStyle=orthogonalEdgeStyle;orthogonalLoop=1;jettySize=auto;html=1;exitX=1;exitY=0.5;exitDx=0;exitDy=0;exitPerimeter=0;" edge="1" parent="1" source="9qMxv9r_k5kkdr-NUMTY-27">
          <mxGeometry relative="1" as="geometry">
            <mxPoint x="810" y="250" as="targetPoint" />
          </mxGeometry>
        </mxCell>
        <mxCell id="9qMxv9r_k5kkdr-NUMTY-27" value="Usuários&lt;div&gt;&lt;br&gt;&lt;/div&gt;" style="shape=cylinder3;whiteSpace=wrap;html=1;boundedLbl=1;backgroundOutline=1;size=15;" vertex="1" parent="1">
          <mxGeometry x="640" y="210" width="60" height="80" as="geometry" />
        </mxCell>
        <mxCell id="9qMxv9r_k5kkdr-NUMTY-36" value="" style="edgeStyle=orthogonalEdgeStyle;orthogonalLoop=1;jettySize=auto;html=1;" edge="1" parent="1" source="9qMxv9r_k5kkdr-NUMTY-32" target="9qMxv9r_k5kkdr-NUMTY-33">
          <mxGeometry relative="1" as="geometry" />
        </mxCell>
        <mxCell id="9qMxv9r_k5kkdr-NUMTY-32" value="Assistir aos videos no formato carrossel" style="rounded=1;whiteSpace=wrap;html=1;" vertex="1" parent="1">
          <mxGeometry x="1040" y="220" width="120" height="60" as="geometry" />
        </mxCell>
        <mxCell id="9qMxv9r_k5kkdr-NUMTY-37" value="" style="edgeStyle=orthogonalEdgeStyle;orthogonalLoop=1;jettySize=auto;html=1;" edge="1" parent="1" source="9qMxv9r_k5kkdr-NUMTY-33" target="9qMxv9r_k5kkdr-NUMTY-34">
          <mxGeometry relative="1" as="geometry" />
        </mxCell>
        <mxCell id="9qMxv9r_k5kkdr-NUMTY-33" value="Atividade com 4 questões" style="rounded=1;whiteSpace=wrap;html=1;" vertex="1" parent="1">
          <mxGeometry x="1320" y="220" width="120" height="60" as="geometry" />
        </mxCell>
        <mxCell id="9qMxv9r_k5kkdr-NUMTY-41" value="" style="edgeStyle=orthogonalEdgeStyle;orthogonalLoop=1;jettySize=auto;html=1;" edge="1" parent="1" source="9qMxv9r_k5kkdr-NUMTY-34" target="9qMxv9r_k5kkdr-NUMTY-40">
          <mxGeometry relative="1" as="geometry" />
        </mxCell>
        <mxCell id="9qMxv9r_k5kkdr-NUMTY-34" value="Envio do vídeo" style="rounded=1;whiteSpace=wrap;html=1;" vertex="1" parent="1">
          <mxGeometry x="1534" y="220" width="120" height="60" as="geometry" />
        </mxCell>
        <mxCell id="9qMxv9r_k5kkdr-NUMTY-39" value="" style="edgeStyle=orthogonalEdgeStyle;orthogonalLoop=1;jettySize=auto;html=1;" edge="1" parent="1" source="9qMxv9r_k5kkdr-NUMTY-38" target="9qMxv9r_k5kkdr-NUMTY-1">
          <mxGeometry relative="1" as="geometry" />
        </mxCell>
        <mxCell id="9qMxv9r_k5kkdr-NUMTY-38" value="Usuário" style="shape=umlActor;verticalLabelPosition=bottom;verticalAlign=top;html=1;outlineConnect=0;" vertex="1" parent="1">
          <mxGeometry x="-135" y="100" width="30" height="60" as="geometry" />
        </mxCell>
        <mxCell id="9qMxv9r_k5kkdr-NUMTY-40" value="Fim" style="ellipse;whiteSpace=wrap;html=1;aspect=fixed;" vertex="1" parent="1">
          <mxGeometry x="1750" y="210" width="80" height="80" as="geometry" />
        </mxCell>
        <mxCell id="9qMxv9r_k5kkdr-NUMTY-42" value="Clique botão" style="text;html=1;align=center;verticalAlign=middle;resizable=0;points=[];autosize=1;strokeColor=none;fillColor=none;" vertex="1" parent="1">
          <mxGeometry x="940" y="225" width="90" height="30" as="geometry" />
        </mxCell>
        <mxCell id="9qMxv9r_k5kkdr-NUMTY-43" value="Clique em fazer atividade" style="text;html=1;align=center;verticalAlign=middle;resizable=0;points=[];autosize=1;strokeColor=none;fillColor=none;" vertex="1" parent="1">
          <mxGeometry x="1155" y="223" width="160" height="30" as="geometry" />
        </mxCell>
        <mxCell id="9qMxv9r_k5kkdr-NUMTY-44" value="&lt;h1 style=&quot;margin-top: 0px;&quot;&gt;Envio do vídeo&lt;/h1&gt;&lt;p&gt;Terá um botão do whatsApp que vai direcionar o usuário para o WhatsApp da Lys.&lt;br&gt;&lt;br&gt;Na mensagem de abertura de janela, vamos enviar o token para a tutora.&lt;br&gt;&lt;br&gt;Ao enviar o vídeo, será responsabilidade do tutor o download e edição do nome do arquivo.&lt;/p&gt;&lt;p&gt;&lt;br&gt;&lt;/p&gt;" style="text;html=1;whiteSpace=wrap;overflow=hidden;rounded=0;" vertex="1" parent="1">
          <mxGeometry x="1534" y="300" width="226" height="270" as="geometry" />
        </mxCell>
      </root>
    </mxGraphModel>
  </diagram>
</mxfile>
